<?xml version="1.0" encoding="UTF-8"?><svg id="Capa_2" xmlns="http://www.w3.org/2000/svg" xmlns:xlink="http://www.w3.org/1999/xlink" viewBox="0 0 231.03 137.63"><defs><style>.cls-1{fill:#65449b;}.cls-2{fill:#429cd6;}.cls-3,.cls-4,.cls-5{stroke-linecap:round;stroke-linejoin:round;}.cls-3,.cls-4,.cls-5,.cls-6,.cls-7{fill:none;stroke-width:2px;}.cls-3,.cls-7{stroke:#65449b;}.cls-4,.cls-6{stroke:#429cd6;}.cls-5{stroke:url(#linear-gradient);}.cls-6,.cls-7{stroke-miterlimit:10;}</style><linearGradient id="linear-gradient" x1="101.05" y1="72.3" x2="113.98" y2="72.3" gradientUnits="userSpaceOnUse"><stop offset="0" stop-color="#429cd6"/><stop offset="1" stop-color="#65449b"/></linearGradient></defs><g id="Layer_1"><g><path class="cls-2" d="M19.19,134.32c.32,.32,.48,.74,.48,1.27,0,.49-.16,.9-.48,1.21-.32,.32-.74,.48-1.27,.48h-1.3c-2.07,0-3.92-.47-5.54-1.41-1.62-.94-2.88-2.23-3.79-3.87s-1.36-3.49-1.36-5.57v-15.88H1.53c-.45,0-.82-.14-1.1-.42-.28-.28-.42-.65-.42-1.1s.14-.82,.42-1.1c.28-.28,.65-.42,1.1-.42H5.93v-9.21c0-.53,.16-.95,.48-1.27,.32-.32,.73-.48,1.22-.48,.53,0,.95,.16,1.27,.48,.32,.32,.48,.74,.48,1.27v9.21h7.46c.45,0,.82,.14,1.1,.42,.28,.28,.42,.65,.42,1.1s-.14,.82-.42,1.1c-.28,.28-.65,.42-1.1,.42h-7.46v15.88c0,2.19,.68,3.97,2.03,5.34,1.36,1.38,3.11,2.06,5.26,2.06h1.24c.53,0,.95,.16,1.27,.48Z"/><path class="cls-2" d="M62.45,106.83c.26,.3,.4,.68,.4,1.13,0,.26-.06,.55-.17,.85l-9.1,27.41c-.11,.34-.31,.6-.59,.79s-.63,.28-1.05,.28c-.38,0-.72-.09-1.02-.28-.3-.19-.49-.45-.56-.79l-7.69-23.91-7.46,23.91c-.26,.72-.79,1.07-1.58,1.07-.38,0-.71-.09-.99-.28-.28-.19-.48-.45-.59-.79l-9.16-27.41c-.08-.45-.11-.75-.11-.9,0-1.02,.47-1.53,1.41-1.53,.34,0,.65,.08,.93,.25,.28,.17,.5,.42,.65,.76l7.97,24.07,7.35-23.74c.11-.41,.32-.74,.62-.99,.3-.24,.66-.37,1.07-.37,.83,0,1.39,.45,1.7,1.36l7.4,23.28,7.86-23.62c.3-.68,.83-1.02,1.58-1.02,.49,0,.87,.15,1.13,.45Z"/><path class="cls-2" d="M69.96,99.12c-.49-.51-.73-1.14-.73-1.89,0-.83,.26-1.47,.79-1.92,.53-.45,1.15-.68,1.87-.68s1.33,.23,1.84,.68c.51,.45,.76,1.09,.76,1.92,0,.75-.25,1.38-.76,1.89-.51,.51-1.14,.76-1.89,.76s-1.38-.25-1.87-.76Zm.71,37.69c-.32-.32-.48-.72-.48-1.21v-27.52c0-.53,.16-.94,.48-1.24,.32-.3,.73-.45,1.22-.45,.53,0,.94,.15,1.24,.45,.3,.3,.45,.72,.45,1.24v27.52c0,.49-.15,.9-.45,1.21-.3,.32-.72,.48-1.24,.48-.49,0-.9-.16-1.22-.48Z"/><path class="cls-2" d="M100.11,134.32c.32,.32,.48,.74,.48,1.27,0,.49-.16,.9-.48,1.21-.32,.32-.74,.48-1.27,.48h-1.3c-2.07,0-3.92-.47-5.54-1.41-1.62-.94-2.88-2.23-3.79-3.87s-1.36-3.49-1.36-5.57v-15.88h-4.41c-.45,0-.82-.14-1.1-.42-.28-.28-.42-.65-.42-1.1s.14-.82,.42-1.1c.28-.28,.65-.42,1.1-.42h4.41v-9.21c0-.53,.16-.95,.48-1.27,.32-.32,.73-.48,1.22-.48,.53,0,.95,.16,1.27,.48,.32,.32,.48,.74,.48,1.27v9.21h7.46c.45,0,.82,.14,1.1,.42,.28,.28,.42,.65,.42,1.1s-.14,.82-.42,1.1c-.28,.28-.65,.42-1.1,.42h-7.46v15.88c0,2.19,.68,3.97,2.03,5.34,1.36,1.38,3.11,2.06,5.26,2.06h1.24c.53,0,.95,.16,1.27,.48Z"/><path class="cls-1" d="M113.48,135.57c-2.34-1.38-4.17-3.27-5.51-5.68-1.34-2.41-2.01-5.09-2.01-8.03s.62-5.66,1.87-8.05,2.98-4.28,5.2-5.65c2.22-1.38,4.71-2.06,7.46-2.06,2.41,0,4.61,.47,6.61,1.41,2,.94,3.73,2.34,5.2,4.18,.26,.38,.4,.7,.4,.96,0,.53-.26,.94-.79,1.24-.26,.23-.56,.34-.9,.34-.53,0-.96-.23-1.3-.68-2.41-2.86-5.48-4.3-9.21-4.3-2.19,0-4.13,.54-5.82,1.61-1.7,1.07-3,2.57-3.93,4.49-.92,1.92-1.38,4.09-1.38,6.5s.51,4.52,1.53,6.44c1.02,1.92,2.43,3.43,4.24,4.52,1.81,1.09,3.88,1.64,6.22,1.64,3.31,0,5.97-.92,7.97-2.77,.34-.34,.73-.51,1.19-.51,.41,0,.75,.13,1.02,.4,.38,.34,.56,.75,.56,1.24,0,.42-.15,.75-.45,1.02-1.32,1.21-2.86,2.14-4.63,2.8-1.77,.66-3.65,.99-5.65,.99-2.9,0-5.52-.69-7.86-2.06Z"/><path class="cls-1" d="M162.67,107.68c2.17,1.13,3.86,2.78,5.09,4.95,1.22,2.17,1.84,4.76,1.84,7.77v15.2c0,.49-.16,.9-.48,1.21-.32,.32-.73,.48-1.21,.48s-.9-.16-1.22-.48c-.32-.32-.48-.72-.48-1.21v-15.2c0-3.58-1.01-6.31-3.02-8.19-2.02-1.88-4.64-2.83-7.88-2.83-2,0-3.81,.39-5.45,1.16-1.64,.77-2.93,1.85-3.87,3.22-.94,1.38-1.41,2.89-1.41,4.55v17.29c0,.49-.15,.9-.45,1.21-.3,.32-.72,.48-1.24,.48-.49,0-.9-.16-1.22-.48-.32-.32-.48-.72-.48-1.21v-40.75c0-.53,.16-.94,.48-1.24,.32-.3,.73-.45,1.22-.45,.53,0,.94,.15,1.24,.45,.3,.3,.45,.72,.45,1.24v16.16c1.28-1.58,2.84-2.82,4.69-3.7,1.85-.88,3.86-1.33,6.05-1.33,2.75,0,5.21,.57,7.38,1.7Z"/><path class="cls-1" d="M199.41,108.04c2.17,1.3,3.85,3.1,5.06,5.4,1.21,2.3,1.81,4.92,1.81,7.86,0,.49-.15,.88-.45,1.16-.3,.28-.7,.42-1.19,.42h-23.68c.11,2.22,.7,4.21,1.75,5.96,1.05,1.75,2.47,3.12,4.24,4.1,1.77,.98,3.75,1.47,5.93,1.47,1.47,0,2.95-.25,4.44-.76,1.49-.51,2.67-1.18,3.53-2.01,.38-.3,.77-.45,1.19-.45s.75,.11,1.02,.34c.41,.34,.62,.74,.62,1.19,0,.38-.17,.73-.51,1.07-1.21,1.09-2.78,2-4.72,2.71-1.94,.72-3.8,1.07-5.57,1.07-2.98,0-5.62-.67-7.94-2.01-2.32-1.34-4.14-3.2-5.45-5.59-1.32-2.39-1.98-5.1-1.98-8.11s.61-5.77,1.84-8.17c1.22-2.39,2.94-4.26,5.14-5.59,2.2-1.34,4.72-2.01,7.54-2.01s5.21,.65,7.38,1.95Zm-14.81,4.15c-2.02,1.96-3.21,4.54-3.59,7.74h21.98c-.26-3.2-1.39-5.78-3.39-7.74-2-1.96-4.52-2.94-7.57-2.94s-5.42,.98-7.43,2.94Z"/><path class="cls-1" d="M231.03,107.9c0,.19-.02,.34-.06,.45-.11,.41-.29,.71-.54,.88-.25,.17-.58,.25-.99,.25-.34,0-.78-.04-1.33-.11-.55-.08-1.01-.11-1.38-.11-1.88,0-3.56,.4-5.03,1.19-1.47,.79-2.62,1.88-3.45,3.28-.83,1.39-1.24,2.96-1.24,4.69v17.18c0,.49-.15,.9-.45,1.21-.3,.32-.72,.48-1.24,.48-.49,0-.9-.16-1.22-.48-.32-.32-.48-.72-.48-1.21v-27.52c0-.53,.16-.94,.48-1.24,.32-.3,.73-.45,1.22-.45,.53,0,.94,.15,1.24,.45,.3,.3,.45,.72,.45,1.24v3.5c1.09-1.73,2.49-3.09,4.18-4.07,1.7-.98,3.54-1.47,5.54-1.47,2.86,0,4.29,.62,4.29,1.87Z"/></g><circle class="cls-6" cx="79.91" cy="18.6" r="17.6"/><path class="cls-5" d="M102.05,69.57c0,3.02,2.45,5.46,5.46,5.46s5.46-2.45,5.46-5.46"/><path class="cls-4" d="M102.05,69.57c0-6.73,2.01-12.98,5.46-18.21-5.92-8.96-16.07-14.87-27.61-14.87-18.27,0-33.07,14.81-33.07,33.07"/><path class="cls-3" d="M168.2,69.57c0-18.27-14.81-33.07-33.07-33.07-11.54,0-21.69,5.91-27.61,14.87,3.45,5.22,5.46,11.48,5.46,18.21"/><circle class="cls-7" cx="135.13" cy="18.6" r="17.6"/></g></svg>