<?xml version="1.0" encoding="UTF-8"?><svg id="Capa_2" xmlns="http://www.w3.org/2000/svg" xmlns:xlink="http://www.w3.org/1999/xlink" viewBox="0 0 126.37 78.23"><defs><style>.cls-1{stroke:url(#Degradado_sin_nombre_11);}.cls-1,.cls-2,.cls-3{stroke-linecap:round;stroke-linejoin:round;}.cls-1,.cls-2,.cls-3,.cls-4,.cls-5{fill:none;stroke-width:5px;}.cls-2,.cls-4{stroke:#ead1e5;}.cls-3,.cls-5{stroke:#d4e9f8;}.cls-4,.cls-5{stroke-miterlimit:10;}</style><linearGradient id="Degradado_sin_nombre_11" x1="55.22" y1="73.4" x2="71.15" y2="73.4" gradientUnits="userSpaceOnUse"><stop offset="0" stop-color="#d4e9f8"/><stop offset="1" stop-color="#ead1e5"/></linearGradient></defs><g id="Layer_1"><circle class="cls-5" cx="35.57" cy="20.1" r="17.6"/><path class="cls-1" d="M57.72,71.07c0,2.57,2.45,4.66,5.46,4.66s5.46-2.09,5.46-4.66"/><path class="cls-3" d="M57.72,71.07c0-6.73,2.01-12.98,5.46-18.21-5.92-8.96-16.07-14.87-27.61-14.87-18.27,0-33.07,14.81-33.07,33.07"/><path class="cls-2" d="M123.87,71.07c0-18.27-14.81-33.07-33.07-33.07-11.54,0-21.69,5.91-27.61,14.87,3.45,5.22,5.46,11.48,5.46,18.21"/><circle class="cls-4" cx="90.79" cy="20.1" r="17.6"/></g></svg>