<?xml version="1.0" encoding="UTF-8"?><svg id="Capa_2" xmlns="http://www.w3.org/2000/svg" xmlns:xlink="http://www.w3.org/1999/xlink" viewBox="0 0 124.37 76.23"><defs><style>.cls-1,.cls-2{stroke-miterlimit:10;}.cls-1,.cls-2,.cls-3,.cls-4,.cls-5{fill:none;stroke-width:3px;}.cls-1,.cls-5{stroke:#ead1e5;}.cls-2,.cls-3{stroke:#d4e9f8;}.cls-3,.cls-4,.cls-5{stroke-linecap:round;stroke-linejoin:round;}.cls-4{stroke:url(#Degradado_sin_nombre_11);}</style><linearGradient id="Degradado_sin_nombre_11" x1="55.22" y1="72.4" x2="69.15" y2="72.4" gradientUnits="userSpaceOnUse"><stop offset="0" stop-color="#d4e9f8"/><stop offset="1" stop-color="#ead1e5"/></linearGradient></defs><g id="Layer_1"><circle class="cls-2" cx="34.57" cy="19.1" r="17.6"/><path class="cls-4" d="M56.72,70.07c0,2.57,2.45,4.66,5.46,4.66s5.46-2.09,5.46-4.66"/><path class="cls-3" d="M56.72,70.07c0-6.73,2.01-12.98,5.46-18.21-5.92-8.96-16.07-14.87-27.61-14.87C16.31,37,1.5,51.81,1.5,70.07"/><path class="cls-5" d="M122.87,70.07c0-18.27-14.81-33.07-33.07-33.07-11.54,0-21.69,5.91-27.61,14.87,3.45,5.22,5.46,11.48,5.46,18.21"/><circle class="cls-1" cx="89.79" cy="19.1" r="17.6"/></g></svg>