<?xml version="1.0" encoding="UTF-8"?><svg id="Capa_2" xmlns="http://www.w3.org/2000/svg" xmlns:xlink="http://www.w3.org/1999/xlink" viewBox="0 0 123.37 75.69"><defs><style>.cls-1,.cls-2,.cls-3,.cls-4,.cls-5{fill:none;stroke-width:2px;}.cls-1,.cls-2,.cls-5{stroke-linecap:round;stroke-linejoin:round;}.cls-1,.cls-3{stroke:#c29bb8;}.cls-2,.cls-4{stroke:#90bce4;}.cls-3,.cls-4{stroke-miterlimit:10;}.cls-5{stroke:url(#Degradado_sin_nombre_5);}</style><linearGradient id="Degradado_sin_nombre_5" x1="55.22" y1="72.13" x2="68.15" y2="72.13" gradientUnits="userSpaceOnUse"><stop offset="0" stop-color="#90bce4"/><stop offset="1" stop-color="#c29bb8"/></linearGradient></defs><g id="Layer_1"><circle class="cls-4" cx="34.07" cy="18.6" r="17.6"/><path class="cls-5" d="M56.22,69.57c0,2.83,2.45,5.12,5.46,5.12s5.46-2.29,5.46-5.12"/><path class="cls-2" d="M56.22,69.57c0-6.73,2.01-12.98,5.46-18.21-5.92-8.96-16.07-14.87-27.61-14.87C15.81,36.5,1,51.31,1,69.57"/><path class="cls-1" d="M122.37,69.57c0-18.27-14.81-33.07-33.07-33.07-11.54,0-21.69,5.91-27.61,14.87,3.45,5.22,5.46,11.48,5.46,18.21"/><circle class="cls-3" cx="89.29" cy="18.6" r="17.6"/></g></svg>