<?xml version="1.0" encoding="UTF-8"?><svg id="Capa_2" xmlns="http://www.w3.org/2000/svg" xmlns:xlink="http://www.w3.org/1999/xlink" viewBox="0 0 127.37 78.47"><defs><style>.cls-1,.cls-2{stroke-miterlimit:10;}.cls-1,.cls-2,.cls-3,.cls-4,.cls-5{fill:none;stroke-width:6px;}.cls-1,.cls-4{stroke:#429cd6;}.cls-2,.cls-5{stroke:#65449b;}.cls-3{stroke:url(#Degradado_sin_nombre_15);}.cls-3,.cls-4,.cls-5{stroke-linecap:round;stroke-linejoin:round;}</style><linearGradient id="Degradado_sin_nombre_15" x1="55.22" y1="73.14" x2="72.15" y2="73.14" gradientUnits="userSpaceOnUse"><stop offset="0" stop-color="#3d9cd6"/><stop offset="1" stop-color="#65459b"/></linearGradient></defs><g id="Capa_2-2"><circle class="cls-1" cx="36.07" cy="20.6" r="17.6"/><path class="cls-3" d="M58.22,70.81c0,2.57,2.45,4.66,5.46,4.66s5.46-2.09,5.46-4.66"/><path class="cls-4" d="M58.22,71.57c0-6.73,2.01-12.98,5.46-18.21-5.92-8.96-16.07-14.87-27.61-14.87-18.27,0-33.07,14.81-33.07,33.07"/><path class="cls-5" d="M124.37,71.57c0-18.27-14.81-33.07-33.07-33.07-11.54,0-21.69,5.91-27.61,14.87,3.45,5.22,5.46,11.48,5.46,18.21"/><circle class="cls-2" cx="91.29" cy="20.6" r="17.6"/></g></svg>