<?xml version="1.0" encoding="UTF-8"?><svg id="Capa_2" xmlns="http://www.w3.org/2000/svg" xmlns:xlink="http://www.w3.org/1999/xlink" viewBox="0 0 123.37 76.04"><defs><style>.cls-1,.cls-2,.cls-3{stroke-linecap:round;stroke-linejoin:round;}.cls-1,.cls-2,.cls-3,.cls-4,.cls-5{fill:none;stroke-width:2px;}.cls-1,.cls-5{stroke:#a7aaad;}.cls-2,.cls-4{stroke:#a7aaad;}.cls-3{stroke:#a7aaad;}.cls-4,.cls-5{stroke-miterlimit:10;}</style><linearGradient id="linear-gradient" x1="55.22" y1="72.3" x2="68.15" y2="72.3" gradientUnits="userSpaceOnUse"><stop offset="0" stop-color="#a7aaad"/><stop offset="1" stop-color="#a7aaad"/></linearGradient></defs><g id="Layer_1"><circle class="cls-4" cx="34.07" cy="18.6" r="17.6"/><path class="cls-3" d="M56.22,69.57c0,3.02,2.45,5.46,5.46,5.46s5.46-2.45,5.46-5.46"/><path class="cls-2" d="M56.22,69.57c0-6.73,2.01-12.98,5.46-18.21-5.92-8.96-16.07-14.87-27.61-14.87C15.81,36.5,1,51.31,1,69.57"/><path class="cls-1" d="M122.37,69.57c0-18.27-14.81-33.07-33.07-33.07-11.54,0-21.69,5.91-27.61,14.87,3.45,5.22,5.46,11.48,5.46,18.21"/><circle class="cls-5" cx="89.29" cy="18.6" r="17.6"/></g></svg>